M48
; DRILL file {KiCad (6.0.5)} date Fri 24 Jun 2022 16:52:06 CEST
; FORMAT={-:-/ absolute / metric / decimal}
; #@! TF.CreationDate,2022-06-24T16:52:06+02:00
; #@! TF.GenerationSoftware,Kicad,Pcbnew,(6.0.5)
; #@! TF.FileFunction,Plated,1,2,PTH
FMAT,2
METRIC
; #@! TA.AperFunction,Plated,PTH,ComponentDrill
T1C0.600
; #@! TA.AperFunction,Plated,PTH,ComponentDrill
T2C0.700
; #@! TA.AperFunction,Plated,PTH,ComponentDrill
T3C0.800
; #@! TA.AperFunction,Plated,PTH,ComponentDrill
T4C1.000
; #@! TA.AperFunction,Plated,PTH,ComponentDrill
T5C3.200
%
G90
G05
T1
X97.06Y-108.95
X99.06Y-108.95
X109.523Y-101.6
X111.523Y-101.6
X119.496Y-101.6
X121.496Y-101.6
T2
X98.75Y-73.04
X98.75Y-80.66
X108.578Y-84.93
X108.578Y-92.55
X113.15Y-84.93
X113.15Y-92.55
X117.856Y-83.439
X117.856Y-91.059
X122.174Y-83.439
X122.174Y-91.059
T4
X98.0Y-83.925
X98.0Y-86.465
X98.0Y-89.005
X98.0Y-91.545
X98.0Y-94.085
X102.256Y-68.692
X102.256Y-71.232
X102.256Y-73.772
X102.256Y-76.312
X102.256Y-78.852
X102.256Y-81.392
X102.256Y-83.932
X102.256Y-86.472
X102.256Y-89.012
X102.256Y-91.552
X102.256Y-94.092
X102.256Y-96.632
X102.256Y-99.172
X102.256Y-101.712
X102.256Y-104.252
X102.256Y-106.792
X102.256Y-109.332
X102.256Y-111.872
X102.256Y-114.412
X127.656Y-68.692
X127.656Y-71.232
X127.656Y-73.772
X127.656Y-76.312
X127.656Y-78.852
X127.656Y-81.392
X127.656Y-83.932
X127.656Y-86.472
X127.656Y-89.012
X127.656Y-91.552
X127.656Y-94.092
X127.656Y-96.632
X127.656Y-99.172
X127.656Y-101.712
X127.656Y-104.252
X127.656Y-106.792
X127.656Y-109.332
X127.656Y-111.872
X127.656Y-114.412
X132.969Y-78.867
X132.969Y-81.407
X132.969Y-83.947
X132.969Y-86.487
X132.969Y-93.726
X132.969Y-96.266
T5
X96.5Y-68.0
X96.5Y-115.0
X133.5Y-68.0
X133.5Y-115.0
T3
X109.505Y-107.11G85X109.505Y-106.41
G05
X111.965Y-107.03G85X111.965Y-106.33
G05
X114.155Y-111.76G85X114.855Y-111.76
G05
X117.038Y-107.035G85X117.038Y-106.335
G05
X119.505Y-107.11G85X119.505Y-106.41
G05
T0
M30
