M48
; DRILL file {KiCad (6.0.5)} date Fri 24 Jun 2022 16:36:35 CEST
; FORMAT={-:-/ absolute / inch / decimal}
; #@! TF.CreationDate,2022-06-24T16:36:35+02:00
; #@! TF.GenerationSoftware,Kicad,Pcbnew,(6.0.5)
; #@! TF.FileFunction,Plated,1,2,PTH
FMAT,2
INCH
; #@! TA.AperFunction,Plated,PTH,ComponentDrill
T1C0.0236
; #@! TA.AperFunction,Plated,PTH,ComponentDrill
T2C0.0276
; #@! TA.AperFunction,Plated,PTH,ComponentDrill
T3C0.0315
; #@! TA.AperFunction,Plated,PTH,ComponentDrill
T4C0.0394
; #@! TA.AperFunction,Plated,PTH,ComponentDrill
T5C0.1260
%
G90
G05
T1
X3.8213Y-4.2894
X3.9Y-4.2894
X4.3119Y-4.0
X4.3907Y-4.0
X4.7046Y-4.0
X4.7833Y-4.0
T2
X3.8878Y-2.8756
X3.8878Y-3.1756
X4.2747Y-3.3437
X4.2747Y-3.6437
X4.4547Y-3.3437
X4.4547Y-3.6437
X4.64Y-3.285
X4.64Y-3.585
X4.81Y-3.285
X4.81Y-3.585
T4
X3.8583Y-3.3041
X3.8583Y-3.4041
X3.8583Y-3.5041
X3.8583Y-3.6041
X3.8583Y-3.7041
X4.0258Y-2.7044
X4.0258Y-2.8044
X4.0258Y-2.9044
X4.0258Y-3.0044
X4.0258Y-3.1044
X4.0258Y-3.2044
X4.0258Y-3.3044
X4.0258Y-3.4044
X4.0258Y-3.5044
X4.0258Y-3.6044
X4.0258Y-3.7044
X4.0258Y-3.8044
X4.0258Y-3.9044
X4.0258Y-4.0044
X4.0258Y-4.1044
X4.0258Y-4.2044
X4.0258Y-4.3044
X4.0258Y-4.4044
X4.0258Y-4.5044
X5.0258Y-2.7044
X5.0258Y-2.8044
X5.0258Y-2.9044
X5.0258Y-3.0044
X5.0258Y-3.1044
X5.0258Y-3.2044
X5.0258Y-3.3044
X5.0258Y-3.4044
X5.0258Y-3.5044
X5.0258Y-3.6044
X5.0258Y-3.7044
X5.0258Y-3.8044
X5.0258Y-3.9044
X5.0258Y-4.0044
X5.0258Y-4.1044
X5.0258Y-4.2044
X5.0258Y-4.3044
X5.0258Y-4.4044
X5.0258Y-4.5044
X5.235Y-3.105
X5.235Y-3.205
X5.235Y-3.305
X5.235Y-3.405
X5.235Y-3.69
X5.235Y-3.79
T5
X3.7992Y-2.6772
X3.7992Y-4.5276
X5.2559Y-2.6772
X5.2559Y-4.5276
T3
G00X4.3112Y-4.2169
M15
G01X4.3112Y-4.1894
M16
G05
G00X4.4081Y-4.2138
M15
G01X4.4081Y-4.1862
M16
G05
G00X4.4943Y-4.4
M15
G01X4.5219Y-4.4
M16
G05
G00X4.6078Y-4.214
M15
G01X4.6078Y-4.1864
M16
G05
G00X4.7049Y-4.2169
M15
G01X4.7049Y-4.1894
M16
G05
T0
M30
