%TF.GenerationSoftware,KiCad,Pcbnew,(6.0.5)*%
%TF.CreationDate,2022-06-24T16:31:51+02:00*%
%TF.ProjectId,ESP32Webradio_5,45535033-3257-4656-9272-6164696f5f35,rev?*%
%TF.SameCoordinates,Original*%
%TF.FileFunction,Soldermask,Bot*%
%TF.FilePolarity,Negative*%
%FSLAX46Y46*%
G04 Gerber Fmt 4.6, Leading zero omitted, Abs format (unit mm)*
G04 Created by KiCad (PCBNEW (6.0.5)) date 2022-06-24 16:31:51*
%MOMM*%
%LPD*%
G01*
G04 APERTURE LIST*
%ADD10C,5.600000*%
%ADD11R,1.700000X1.700000*%
%ADD12O,1.700000X1.700000*%
%ADD13C,1.400000*%
%ADD14O,1.400000X1.400000*%
%ADD15R,1.200000X1.200000*%
%ADD16C,1.200000*%
%ADD17O,2.616000X1.308000*%
%ADD18O,1.308000X2.616000*%
G04 APERTURE END LIST*
D10*
%TO.C,H3*%
X133500000Y-115000000D03*
%TD*%
%TO.C,H4*%
X133500000Y-68000000D03*
%TD*%
D11*
%TO.C,J1*%
X132969000Y-93726000D03*
D12*
X132969000Y-96266000D03*
%TD*%
D13*
%TO.C,R5*%
X117856000Y-83439000D03*
D14*
X117856000Y-91059000D03*
%TD*%
D13*
%TO.C,R2*%
X108578000Y-84930000D03*
D14*
X108578000Y-92550000D03*
%TD*%
D11*
%TO.C,U1*%
X102256006Y-68691506D03*
D12*
X102256006Y-71231506D03*
X102256006Y-73771506D03*
X102256006Y-76311506D03*
X102256006Y-78851506D03*
X102256006Y-81391506D03*
X102256006Y-83931506D03*
X102256006Y-86471506D03*
X102256006Y-89011506D03*
X102256006Y-91551506D03*
X102256006Y-94091506D03*
X102256006Y-96631506D03*
X102256006Y-99171506D03*
X102256006Y-101711506D03*
X102256006Y-104251506D03*
X102256006Y-106791506D03*
X102256006Y-109331506D03*
X102256006Y-111871506D03*
X102256006Y-114411506D03*
X127656006Y-114411506D03*
X127656006Y-111871506D03*
X127656006Y-109331506D03*
X127656006Y-106791506D03*
X127656006Y-104251506D03*
X127656006Y-101711506D03*
X127656006Y-99171506D03*
X127656006Y-96631506D03*
X127656006Y-94091506D03*
X127656006Y-91551506D03*
X127656006Y-89011506D03*
X127656006Y-86471506D03*
X127656006Y-83931506D03*
X127656006Y-81391506D03*
X127656006Y-78851506D03*
X127656006Y-76311506D03*
X127656006Y-73771506D03*
X127656006Y-71231506D03*
D11*
X127656006Y-68691506D03*
%TD*%
D13*
%TO.C,R3*%
X113150000Y-92550000D03*
D14*
X113150000Y-84930000D03*
%TD*%
D13*
%TO.C,R1*%
X98750000Y-73040000D03*
D14*
X98750000Y-80660000D03*
%TD*%
D10*
%TO.C,H1*%
X96500000Y-68000000D03*
%TD*%
D15*
%TO.C,C2*%
X121495600Y-101600000D03*
D16*
X119495600Y-101600000D03*
%TD*%
D10*
%TO.C,H2*%
X96500000Y-115000000D03*
%TD*%
D15*
%TO.C,C1*%
X111522600Y-101600000D03*
D16*
X109522600Y-101600000D03*
%TD*%
D11*
%TO.C,J3*%
X132969000Y-78867000D03*
D12*
X132969000Y-81407000D03*
X132969000Y-83947000D03*
X132969000Y-86487000D03*
%TD*%
D15*
%TO.C,C3*%
X99060000Y-108950000D03*
D16*
X97060000Y-108950000D03*
%TD*%
D13*
%TO.C,R4*%
X122174000Y-91059000D03*
D14*
X122174000Y-83439000D03*
%TD*%
D16*
%TO.C,J5*%
X109505500Y-111760000D03*
X119505500Y-114260000D03*
X119505500Y-111760000D03*
X114505500Y-106760000D03*
X109505500Y-114260000D03*
D17*
X114505500Y-111760000D03*
D18*
X117038395Y-106684611D03*
X119505500Y-106760000D03*
X111965500Y-106680000D03*
X109505500Y-106760000D03*
%TD*%
D11*
%TO.C,J2*%
X98000000Y-83925000D03*
D12*
X98000000Y-86465000D03*
X98000000Y-89005000D03*
X98000000Y-91545000D03*
X98000000Y-94085000D03*
%TD*%
M02*
