%TF.GenerationSoftware,KiCad,Pcbnew,(6.0.5)*%
%TF.CreationDate,2022-05-27T17:05:52+02:00*%
%TF.ProjectId,ESP32Webradio_3,45535033-3257-4656-9272-6164696f5f33,rev?*%
%TF.SameCoordinates,Original*%
%TF.FileFunction,Soldermask,Top*%
%TF.FilePolarity,Negative*%
%FSLAX46Y46*%
G04 Gerber Fmt 4.6, Leading zero omitted, Abs format (unit mm)*
G04 Created by KiCad (PCBNEW (6.0.5)) date 2022-05-27 17:05:52*
%MOMM*%
%LPD*%
G01*
G04 APERTURE LIST*
%ADD10C,5.600000*%
%ADD11R,1.700000X1.700000*%
%ADD12O,1.700000X1.700000*%
%ADD13C,1.600000*%
%ADD14O,1.600000X1.600000*%
%ADD15R,1.200000X1.200000*%
%ADD16C,1.200000*%
%ADD17R,1.600000X1.600000*%
%ADD18O,2.616000X1.308000*%
%ADD19O,1.308000X2.616000*%
G04 APERTURE END LIST*
D10*
%TO.C,H4*%
X133000000Y-68082000D03*
%TD*%
%TO.C,H3*%
X133500000Y-116000000D03*
%TD*%
D11*
%TO.C,J1*%
X132999988Y-93726000D03*
D12*
X132999988Y-96266000D03*
%TD*%
D13*
%TO.C,R5*%
X93599000Y-86868000D03*
D14*
X91059000Y-86868000D03*
%TD*%
D13*
%TO.C,R2*%
X97790000Y-88265000D03*
D14*
X97790000Y-90805000D03*
%TD*%
D11*
%TO.C,U1*%
X102256006Y-68691506D03*
D12*
X102256006Y-71231506D03*
X102256006Y-73771506D03*
X102256006Y-76311506D03*
X102256006Y-78851506D03*
X102256006Y-81391506D03*
X102256006Y-83931506D03*
X102256006Y-86471506D03*
X102256006Y-89011506D03*
X102256006Y-91551506D03*
X102256006Y-94091506D03*
X102256006Y-96631506D03*
X102256006Y-99171506D03*
X102256006Y-101711506D03*
X102256006Y-104251506D03*
X102256006Y-106791506D03*
X102256006Y-109331506D03*
X102256006Y-111871506D03*
X102256006Y-114411506D03*
X127656006Y-114411506D03*
X127656006Y-111871506D03*
X127656006Y-109331506D03*
X127656006Y-106791506D03*
X127656006Y-104251506D03*
X127656006Y-101711506D03*
X127656006Y-99171506D03*
X127656006Y-96631506D03*
X127656006Y-94091506D03*
X127656006Y-91551506D03*
X127656006Y-89011506D03*
X127656006Y-86471506D03*
X127656006Y-83931506D03*
X127656006Y-81391506D03*
X127656006Y-78851506D03*
X127656006Y-76311506D03*
X127656006Y-73771506D03*
X127656006Y-71231506D03*
D11*
X127656006Y-68691506D03*
%TD*%
D13*
%TO.C,R3*%
X95758000Y-98952000D03*
D14*
X95758000Y-101492000D03*
%TD*%
D13*
%TO.C,R1*%
X97917000Y-68707000D03*
D14*
X97917000Y-71247000D03*
%TD*%
D10*
%TO.C,H1*%
X89000000Y-67955000D03*
%TD*%
D15*
%TO.C,C2*%
X92329000Y-91059000D03*
D16*
X94329000Y-91059000D03*
%TD*%
D10*
%TO.C,H2*%
X89500000Y-100838000D03*
%TD*%
D15*
%TO.C,C1*%
X96182401Y-94361000D03*
D16*
X98182401Y-94361000D03*
%TD*%
D11*
%TO.C,J3*%
X132969000Y-78867000D03*
D12*
X132969000Y-81407000D03*
X132969000Y-83947000D03*
X132969000Y-86487000D03*
%TD*%
D17*
%TO.C,C3*%
X92075000Y-74676000D03*
D13*
X92075000Y-77176000D03*
%TD*%
%TO.C,R4*%
X89154000Y-92456000D03*
D14*
X89154000Y-94996000D03*
%TD*%
D16*
%TO.C,J5*%
X88169511Y-114632999D03*
X88169511Y-112132999D03*
X98169511Y-112132999D03*
X98169511Y-114632999D03*
X93169511Y-107132999D03*
D18*
X93169511Y-112132999D03*
D19*
X98169511Y-107132999D03*
X95702406Y-107057610D03*
X88169511Y-107132999D03*
X90629511Y-107052999D03*
%TD*%
D11*
%TO.C,J2*%
X98038996Y-83185000D03*
D12*
X95498996Y-83185000D03*
X92958996Y-83185000D03*
X90418996Y-83185000D03*
X87878996Y-83185000D03*
%TD*%
M02*
