M48
; DRILL file {KiCad (6.0.5)} date Fr 27 Mai 2022 17:53:07 CEST
; FORMAT={-:-/ absolute / inch / decimal}
; #@! TF.CreationDate,2022-05-27T17:53:07+02:00
; #@! TF.GenerationSoftware,Kicad,Pcbnew,(6.0.5)
; #@! TF.FileFunction,Plated,1,2,PTH
FMAT,2
INCH
; #@! TA.AperFunction,Plated,PTH,ComponentDrill
T1C0.0236
; #@! TA.AperFunction,Plated,PTH,ComponentDrill
T2C0.0315
; #@! TA.AperFunction,Plated,PTH,ComponentDrill
T3C0.0394
; #@! TA.AperFunction,Plated,PTH,ComponentDrill
T4C0.1260
%
G90
G05
T1
X3.635Y-3.585
X3.7137Y-3.585
X3.7867Y-3.715
X3.8654Y-3.715
T2
X3.51Y-3.64
X3.51Y-3.74
X3.585Y-3.42
X3.625Y-2.94
X3.625Y-3.0384
X3.685Y-3.42
X3.77Y-3.8957
X3.77Y-3.9957
X3.85Y-3.475
X3.85Y-3.575
X3.855Y-2.705
X3.855Y-2.805
T3
X3.4598Y-3.275
X3.5598Y-3.275
X3.6598Y-3.275
X3.7598Y-3.275
X3.8598Y-3.275
X4.0258Y-2.7044
X4.0258Y-2.8044
X4.0258Y-2.9044
X4.0258Y-3.0044
X4.0258Y-3.1044
X4.0258Y-3.2044
X4.0258Y-3.3044
X4.0258Y-3.4044
X4.0258Y-3.5044
X4.0258Y-3.6044
X4.0258Y-3.7044
X4.0258Y-3.8044
X4.0258Y-3.9044
X4.0258Y-4.0044
X4.0258Y-4.1044
X4.0258Y-4.2044
X4.0258Y-4.3044
X4.0258Y-4.4044
X4.0258Y-4.5044
X5.0258Y-2.7044
X5.0258Y-2.8044
X5.0258Y-2.9044
X5.0258Y-3.0044
X5.0258Y-3.1044
X5.0258Y-3.2044
X5.0258Y-3.3044
X5.0258Y-3.4044
X5.0258Y-3.5044
X5.0258Y-3.6044
X5.0258Y-3.7044
X5.0258Y-3.8044
X5.0258Y-3.9044
X5.0258Y-4.0044
X5.0258Y-4.1044
X5.0258Y-4.2044
X5.0258Y-4.3044
X5.0258Y-4.4044
X5.0258Y-4.5044
X5.235Y-3.105
X5.235Y-3.205
X5.235Y-3.305
X5.235Y-3.405
X5.2362Y-3.69
X5.2362Y-3.79
T4
X3.5039Y-2.6754
X3.5236Y-3.97
X5.2559Y-2.6804
X5.2559Y-4.525
T2
G00X3.4712Y-4.2316
M15
G01X3.4712Y-4.2041
M16
G05
G00X3.5681Y-4.2285
M15
G01X3.5681Y-4.2009
M16
G05
G00X3.6543Y-4.4147
M15
G01X3.6819Y-4.4147
M16
G05
G00X3.7678Y-4.2286
M15
G01X3.7678Y-4.2011
M16
G05
G00X3.8649Y-4.2316
M15
G01X3.8649Y-4.2041
M16
G05
T0
M30
