%TF.GenerationSoftware,KiCad,Pcbnew,(6.0.5)*%
%TF.CreationDate,2022-05-27T17:05:52+02:00*%
%TF.ProjectId,ESP32Webradio_3,45535033-3257-4656-9272-6164696f5f33,rev?*%
%TF.SameCoordinates,Original*%
%TF.FileFunction,Legend,Top*%
%TF.FilePolarity,Positive*%
%FSLAX46Y46*%
G04 Gerber Fmt 4.6, Leading zero omitted, Abs format (unit mm)*
G04 Created by KiCad (PCBNEW (6.0.5)) date 2022-05-27 17:05:52*
%MOMM*%
%LPD*%
G01*
G04 APERTURE LIST*
%ADD10C,0.150000*%
%ADD11C,0.120000*%
%ADD12C,0.127000*%
%ADD13C,0.340000*%
G04 APERTURE END LIST*
D10*
%TO.C,R5*%
X89352380Y-86653666D02*
X88876190Y-86987000D01*
X89352380Y-87225095D02*
X88352380Y-87225095D01*
X88352380Y-86844142D01*
X88400000Y-86748904D01*
X88447619Y-86701285D01*
X88542857Y-86653666D01*
X88685714Y-86653666D01*
X88780952Y-86701285D01*
X88828571Y-86748904D01*
X88876190Y-86844142D01*
X88876190Y-87225095D01*
X88352380Y-85748904D02*
X88352380Y-86225095D01*
X88828571Y-86272714D01*
X88780952Y-86225095D01*
X88733333Y-86129857D01*
X88733333Y-85891761D01*
X88780952Y-85796523D01*
X88828571Y-85748904D01*
X88923809Y-85701285D01*
X89161904Y-85701285D01*
X89257142Y-85748904D01*
X89304761Y-85796523D01*
X89352380Y-85891761D01*
X89352380Y-86129857D01*
X89304761Y-86225095D01*
X89257142Y-86272714D01*
%TO.C,R2*%
X100401380Y-90971666D02*
X99925190Y-91305000D01*
X100401380Y-91543095D02*
X99401380Y-91543095D01*
X99401380Y-91162142D01*
X99449000Y-91066904D01*
X99496619Y-91019285D01*
X99591857Y-90971666D01*
X99734714Y-90971666D01*
X99829952Y-91019285D01*
X99877571Y-91066904D01*
X99925190Y-91162142D01*
X99925190Y-91543095D01*
X99496619Y-90590714D02*
X99449000Y-90543095D01*
X99401380Y-90447857D01*
X99401380Y-90209761D01*
X99449000Y-90114523D01*
X99496619Y-90066904D01*
X99591857Y-90019285D01*
X99687095Y-90019285D01*
X99829952Y-90066904D01*
X100401380Y-90638333D01*
X100401380Y-90019285D01*
%TO.C,R3*%
X99639380Y-100496666D02*
X99163190Y-100830000D01*
X99639380Y-101068095D02*
X98639380Y-101068095D01*
X98639380Y-100687142D01*
X98687000Y-100591904D01*
X98734619Y-100544285D01*
X98829857Y-100496666D01*
X98972714Y-100496666D01*
X99067952Y-100544285D01*
X99115571Y-100591904D01*
X99163190Y-100687142D01*
X99163190Y-101068095D01*
X98639380Y-100163333D02*
X98639380Y-99544285D01*
X99020333Y-99877619D01*
X99020333Y-99734761D01*
X99067952Y-99639523D01*
X99115571Y-99591904D01*
X99210809Y-99544285D01*
X99448904Y-99544285D01*
X99544142Y-99591904D01*
X99591761Y-99639523D01*
X99639380Y-99734761D01*
X99639380Y-100020476D01*
X99591761Y-100115714D01*
X99544142Y-100163333D01*
%TO.C,R1*%
X101089380Y-70143666D02*
X100613190Y-70477000D01*
X101089380Y-70715095D02*
X100089380Y-70715095D01*
X100089380Y-70334142D01*
X100137000Y-70238904D01*
X100184619Y-70191285D01*
X100279857Y-70143666D01*
X100422714Y-70143666D01*
X100517952Y-70191285D01*
X100565571Y-70238904D01*
X100613190Y-70334142D01*
X100613190Y-70715095D01*
X101089380Y-69191285D02*
X101089380Y-69762714D01*
X101089380Y-69477000D02*
X100089380Y-69477000D01*
X100232238Y-69572238D01*
X100327476Y-69667476D01*
X100375095Y-69762714D01*
%TO.C,C2*%
X92813142Y-94273666D02*
X92860761Y-94321285D01*
X92908380Y-94464142D01*
X92908380Y-94559380D01*
X92860761Y-94702238D01*
X92765523Y-94797476D01*
X92670285Y-94845095D01*
X92479809Y-94892714D01*
X92336952Y-94892714D01*
X92146476Y-94845095D01*
X92051238Y-94797476D01*
X91956000Y-94702238D01*
X91908380Y-94559380D01*
X91908380Y-94464142D01*
X91956000Y-94321285D01*
X92003619Y-94273666D01*
X92003619Y-93892714D02*
X91956000Y-93845095D01*
X91908380Y-93749857D01*
X91908380Y-93511761D01*
X91956000Y-93416523D01*
X92003619Y-93368904D01*
X92098857Y-93321285D01*
X92194095Y-93321285D01*
X92336952Y-93368904D01*
X92908380Y-93940333D01*
X92908380Y-93321285D01*
%TO.C,C1*%
X99798142Y-96940666D02*
X99845761Y-96988285D01*
X99893380Y-97131142D01*
X99893380Y-97226380D01*
X99845761Y-97369238D01*
X99750523Y-97464476D01*
X99655285Y-97512095D01*
X99464809Y-97559714D01*
X99321952Y-97559714D01*
X99131476Y-97512095D01*
X99036238Y-97464476D01*
X98941000Y-97369238D01*
X98893380Y-97226380D01*
X98893380Y-97131142D01*
X98941000Y-96988285D01*
X98988619Y-96940666D01*
X99893380Y-95988285D02*
X99893380Y-96559714D01*
X99893380Y-96274000D02*
X98893380Y-96274000D01*
X99036238Y-96369238D01*
X99131476Y-96464476D01*
X99179095Y-96559714D01*
%TO.C,C3*%
X92432142Y-72429666D02*
X92479761Y-72477285D01*
X92527380Y-72620142D01*
X92527380Y-72715380D01*
X92479761Y-72858238D01*
X92384523Y-72953476D01*
X92289285Y-73001095D01*
X92098809Y-73048714D01*
X91955952Y-73048714D01*
X91765476Y-73001095D01*
X91670238Y-72953476D01*
X91575000Y-72858238D01*
X91527380Y-72715380D01*
X91527380Y-72620142D01*
X91575000Y-72477285D01*
X91622619Y-72429666D01*
X91527380Y-72096333D02*
X91527380Y-71477285D01*
X91908333Y-71810619D01*
X91908333Y-71667761D01*
X91955952Y-71572523D01*
X92003571Y-71524904D01*
X92098809Y-71477285D01*
X92336904Y-71477285D01*
X92432142Y-71524904D01*
X92479761Y-71572523D01*
X92527380Y-71667761D01*
X92527380Y-71953476D01*
X92479761Y-72048714D01*
X92432142Y-72096333D01*
%TO.C,R4*%
X88590380Y-89828666D02*
X88114190Y-90162000D01*
X88590380Y-90400095D02*
X87590380Y-90400095D01*
X87590380Y-90019142D01*
X87638000Y-89923904D01*
X87685619Y-89876285D01*
X87780857Y-89828666D01*
X87923714Y-89828666D01*
X88018952Y-89876285D01*
X88066571Y-89923904D01*
X88114190Y-90019142D01*
X88114190Y-90400095D01*
X87923714Y-88971523D02*
X88590380Y-88971523D01*
X87542761Y-89209619D02*
X88257047Y-89447714D01*
X88257047Y-88828666D01*
%TO.C,J5*%
X89495171Y-110442466D02*
X90209744Y-110442466D01*
X90352659Y-110490104D01*
X90447935Y-110585380D01*
X90495573Y-110728295D01*
X90495573Y-110823571D01*
X89495171Y-109489702D02*
X89495171Y-109966084D01*
X89971553Y-110013722D01*
X89923915Y-109966084D01*
X89876277Y-109870808D01*
X89876277Y-109632617D01*
X89923915Y-109537340D01*
X89971553Y-109489702D01*
X90066830Y-109442064D01*
X90305021Y-109442064D01*
X90400297Y-109489702D01*
X90447935Y-109537340D01*
X90495573Y-109632617D01*
X90495573Y-109870808D01*
X90447935Y-109966084D01*
X90400297Y-110013722D01*
D11*
%TO.C,J1*%
X131669988Y-97596000D02*
X134329988Y-97596000D01*
X131669988Y-92396000D02*
X132999988Y-92396000D01*
X131669988Y-93726000D02*
X131669988Y-92396000D01*
X134329988Y-94996000D02*
X134329988Y-97596000D01*
X131669988Y-94996000D02*
X134329988Y-94996000D01*
X131669988Y-94996000D02*
X131669988Y-97596000D01*
%TO.C,R5*%
X92145728Y-87668000D02*
G75*
G03*
X92254225Y-85896620I1453272J800000D01*
G01*
%TO.C,R2*%
X98590000Y-89718272D02*
G75*
G03*
X96818620Y-89609775I-800000J1453272D01*
G01*
%TO.C,U1*%
X126326006Y-69961506D02*
X128986006Y-69961506D01*
X127656006Y-67361506D02*
X128986006Y-67361506D01*
X128986006Y-67361506D02*
X128986006Y-68691506D01*
X130196006Y-115681506D02*
X114956006Y-115681506D01*
X126326006Y-69961506D02*
X126326006Y-115741506D01*
X126326006Y-115741506D02*
X128986006Y-115741506D01*
X128986006Y-69961506D02*
X128986006Y-115741506D01*
%TO.C,R3*%
X96558000Y-100405272D02*
G75*
G03*
X94786620Y-100296775I-800000J1453272D01*
G01*
%TO.C,R1*%
X98717000Y-70160272D02*
G75*
G03*
X96945620Y-70051775I-800000J1453272D01*
G01*
%TO.C,C2*%
X94330000Y-91899000D02*
X94330000Y-92889000D01*
X94210000Y-91899000D02*
X94210000Y-92948000D01*
X94850000Y-89621000D02*
X94850000Y-90219000D01*
X93329000Y-88979000D02*
X93329000Y-93139000D01*
X94970000Y-89755000D02*
X94970000Y-90219000D01*
X94330000Y-89229000D02*
X94330000Y-90219000D01*
X95090000Y-89917000D02*
X95090000Y-90219000D01*
X93809000Y-89034000D02*
X93809000Y-90219000D01*
X94810000Y-91899000D02*
X94810000Y-92537000D01*
X93689000Y-89009000D02*
X93689000Y-90219000D01*
X94370000Y-91899000D02*
X94370000Y-92867000D01*
X94009000Y-91899000D02*
X94009000Y-93027000D01*
X94930000Y-89708000D02*
X94930000Y-90219000D01*
X91059199Y-89864000D02*
X91459199Y-89864000D01*
X95090000Y-91899000D02*
X95090000Y-92201000D01*
X93729000Y-91899000D02*
X93729000Y-93101000D01*
X93849000Y-89043000D02*
X93849000Y-90219000D01*
X94050000Y-89105000D02*
X94050000Y-90219000D01*
X94170000Y-91899000D02*
X94170000Y-92966000D01*
X94530000Y-89351000D02*
X94530000Y-90219000D01*
X93809000Y-91899000D02*
X93809000Y-93084000D01*
X93649000Y-91899000D02*
X93649000Y-93115000D01*
X95050000Y-89859000D02*
X95050000Y-90219000D01*
X95130000Y-89979000D02*
X95130000Y-90219000D01*
X93969000Y-89077000D02*
X93969000Y-90219000D01*
X94810000Y-89581000D02*
X94810000Y-90219000D01*
X93729000Y-89017000D02*
X93729000Y-90219000D01*
X93969000Y-91899000D02*
X93969000Y-93041000D01*
X94530000Y-91899000D02*
X94530000Y-92767000D01*
X93689000Y-91899000D02*
X93689000Y-93109000D01*
X91259199Y-89664000D02*
X91259199Y-90064000D01*
X93569000Y-88992000D02*
X93569000Y-90219000D01*
X94210000Y-89170000D02*
X94210000Y-90219000D01*
X94009000Y-89091000D02*
X94009000Y-90219000D01*
X94290000Y-91899000D02*
X94290000Y-92910000D01*
X93889000Y-91899000D02*
X93889000Y-93064000D01*
X93529000Y-88988000D02*
X93529000Y-90219000D01*
X95370000Y-90522000D02*
X95370000Y-91596000D01*
X95330000Y-90395000D02*
X95330000Y-91723000D01*
X93609000Y-88997000D02*
X93609000Y-90219000D01*
X94090000Y-91899000D02*
X94090000Y-92999000D01*
X94850000Y-91899000D02*
X94850000Y-92497000D01*
X93929000Y-91899000D02*
X93929000Y-93053000D01*
X94250000Y-89189000D02*
X94250000Y-90219000D01*
X95410000Y-90689000D02*
X95410000Y-91429000D01*
X94370000Y-89251000D02*
X94370000Y-90219000D01*
X94250000Y-91899000D02*
X94250000Y-92929000D01*
X93929000Y-89065000D02*
X93929000Y-90219000D01*
X94970000Y-91899000D02*
X94970000Y-92363000D01*
X93609000Y-91899000D02*
X93609000Y-93121000D01*
X93849000Y-91899000D02*
X93849000Y-93075000D01*
X93449000Y-88982000D02*
X93449000Y-93136000D01*
X93769000Y-89025000D02*
X93769000Y-90219000D01*
X93409000Y-88980000D02*
X93409000Y-93138000D01*
X93889000Y-89054000D02*
X93889000Y-90219000D01*
X94650000Y-89440000D02*
X94650000Y-90219000D01*
X94130000Y-89135000D02*
X94130000Y-90219000D01*
X94410000Y-89274000D02*
X94410000Y-90219000D01*
X93489000Y-88985000D02*
X93489000Y-93133000D01*
X94690000Y-89472000D02*
X94690000Y-90219000D01*
X94570000Y-89379000D02*
X94570000Y-90219000D01*
X94610000Y-89409000D02*
X94610000Y-90219000D01*
X95010000Y-91899000D02*
X95010000Y-92313000D01*
X94650000Y-91899000D02*
X94650000Y-92678000D01*
X95290000Y-90291000D02*
X95290000Y-91827000D01*
X93529000Y-91899000D02*
X93529000Y-93130000D01*
X94770000Y-91899000D02*
X94770000Y-92575000D01*
X94570000Y-91899000D02*
X94570000Y-92739000D01*
X94610000Y-91899000D02*
X94610000Y-92709000D01*
X94490000Y-91899000D02*
X94490000Y-92794000D01*
X94170000Y-89152000D02*
X94170000Y-90219000D01*
X94890000Y-89663000D02*
X94890000Y-90219000D01*
X94090000Y-89119000D02*
X94090000Y-90219000D01*
X95050000Y-91899000D02*
X95050000Y-92259000D01*
X94290000Y-89208000D02*
X94290000Y-90219000D01*
X94450000Y-91899000D02*
X94450000Y-92819000D01*
X95210000Y-90119000D02*
X95210000Y-91999000D01*
X94730000Y-91899000D02*
X94730000Y-92611000D01*
X95170000Y-90046000D02*
X95170000Y-92072000D01*
X94770000Y-89543000D02*
X94770000Y-90219000D01*
X94410000Y-91899000D02*
X94410000Y-92844000D01*
X94490000Y-89324000D02*
X94490000Y-90219000D01*
X93769000Y-91899000D02*
X93769000Y-93093000D01*
X94450000Y-89299000D02*
X94450000Y-90219000D01*
X93569000Y-91899000D02*
X93569000Y-93126000D01*
X93369000Y-88979000D02*
X93369000Y-93139000D01*
X94130000Y-91899000D02*
X94130000Y-92983000D01*
X94890000Y-91899000D02*
X94890000Y-92455000D01*
X95130000Y-91899000D02*
X95130000Y-92139000D01*
X95250000Y-90200000D02*
X95250000Y-91918000D01*
X94690000Y-91899000D02*
X94690000Y-92646000D01*
X94050000Y-91899000D02*
X94050000Y-93013000D01*
X94730000Y-89507000D02*
X94730000Y-90219000D01*
X93649000Y-89003000D02*
X93649000Y-90219000D01*
X94930000Y-91899000D02*
X94930000Y-92410000D01*
X95010000Y-89805000D02*
X95010000Y-90219000D01*
X95449000Y-91059000D02*
G75*
G03*
X95449000Y-91059000I-2120000J0D01*
G01*
%TO.C,C1*%
X98183401Y-92531000D02*
X98183401Y-93521000D01*
X98943401Y-95201000D02*
X98943401Y-95503000D01*
X98063401Y-92472000D02*
X98063401Y-93521000D01*
X98903401Y-95201000D02*
X98903401Y-95561000D01*
X98023401Y-92454000D02*
X98023401Y-93521000D01*
X99143401Y-93593000D02*
X99143401Y-95129000D01*
X97622401Y-92327000D02*
X97622401Y-93521000D01*
X99103401Y-93502000D02*
X99103401Y-95220000D01*
X99223401Y-93824000D02*
X99223401Y-94898000D01*
X98863401Y-93107000D02*
X98863401Y-93521000D01*
X97342401Y-92287000D02*
X97342401Y-96435000D01*
X98263401Y-95201000D02*
X98263401Y-96146000D01*
X97662401Y-92336000D02*
X97662401Y-93521000D01*
X98983401Y-93281000D02*
X98983401Y-93521000D01*
X97222401Y-92281000D02*
X97222401Y-96441000D01*
X99263401Y-93991000D02*
X99263401Y-94731000D01*
X98023401Y-95201000D02*
X98023401Y-96268000D01*
X98823401Y-93057000D02*
X98823401Y-93521000D01*
X98423401Y-95201000D02*
X98423401Y-96041000D01*
X97702401Y-92345000D02*
X97702401Y-93521000D01*
X98903401Y-93161000D02*
X98903401Y-93521000D01*
X97862401Y-95201000D02*
X97862401Y-96329000D01*
X97262401Y-92282000D02*
X97262401Y-96440000D01*
X97502401Y-95201000D02*
X97502401Y-96417000D01*
X97582401Y-92319000D02*
X97582401Y-93521000D01*
X98503401Y-95201000D02*
X98503401Y-95980000D01*
X98703401Y-92923000D02*
X98703401Y-93521000D01*
X98223401Y-95201000D02*
X98223401Y-96169000D01*
X98063401Y-95201000D02*
X98063401Y-96250000D01*
X99063401Y-93421000D02*
X99063401Y-95301000D01*
X97382401Y-92290000D02*
X97382401Y-93521000D01*
X97822401Y-95201000D02*
X97822401Y-96343000D01*
X98543401Y-95201000D02*
X98543401Y-95948000D01*
X98223401Y-92553000D02*
X98223401Y-93521000D01*
X98943401Y-93219000D02*
X98943401Y-93521000D01*
X97903401Y-95201000D02*
X97903401Y-96315000D01*
X98983401Y-95201000D02*
X98983401Y-95441000D01*
X98783401Y-93010000D02*
X98783401Y-93521000D01*
X98783401Y-95201000D02*
X98783401Y-95712000D01*
X98863401Y-95201000D02*
X98863401Y-95615000D01*
X97742401Y-95201000D02*
X97742401Y-96366000D01*
X97662401Y-95201000D02*
X97662401Y-96386000D01*
X98303401Y-92601000D02*
X98303401Y-93521000D01*
X95112600Y-92966000D02*
X95112600Y-93366000D01*
X97903401Y-92407000D02*
X97903401Y-93521000D01*
X97502401Y-92305000D02*
X97502401Y-93521000D01*
X98423401Y-92681000D02*
X98423401Y-93521000D01*
X98663401Y-95201000D02*
X98663401Y-95839000D01*
X98103401Y-92491000D02*
X98103401Y-93521000D01*
X98263401Y-92576000D02*
X98263401Y-93521000D01*
X99183401Y-93697000D02*
X99183401Y-95025000D01*
X97622401Y-95201000D02*
X97622401Y-96395000D01*
X94912600Y-93166000D02*
X95312600Y-93166000D01*
X98103401Y-95201000D02*
X98103401Y-96231000D01*
X97822401Y-92379000D02*
X97822401Y-93521000D01*
X98823401Y-95201000D02*
X98823401Y-95665000D01*
X97702401Y-95201000D02*
X97702401Y-96377000D01*
X97582401Y-95201000D02*
X97582401Y-96403000D01*
X97983401Y-95201000D02*
X97983401Y-96285000D01*
X97422401Y-95201000D02*
X97422401Y-96428000D01*
X97182401Y-92281000D02*
X97182401Y-96441000D01*
X98143401Y-92510000D02*
X98143401Y-93521000D01*
X98463401Y-92711000D02*
X98463401Y-93521000D01*
X98703401Y-95201000D02*
X98703401Y-95799000D01*
X97782401Y-95201000D02*
X97782401Y-96355000D01*
X98303401Y-95201000D02*
X98303401Y-96121000D01*
X98623401Y-95201000D02*
X98623401Y-95877000D01*
X98503401Y-92742000D02*
X98503401Y-93521000D01*
X98663401Y-92883000D02*
X98663401Y-93521000D01*
X97462401Y-95201000D02*
X97462401Y-96423000D01*
X98743401Y-95201000D02*
X98743401Y-95757000D01*
X97462401Y-92299000D02*
X97462401Y-93521000D01*
X97542401Y-92311000D02*
X97542401Y-93521000D01*
X98183401Y-95201000D02*
X98183401Y-96191000D01*
X98343401Y-95201000D02*
X98343401Y-96096000D01*
X97983401Y-92437000D02*
X97983401Y-93521000D01*
X97943401Y-92421000D02*
X97943401Y-93521000D01*
X98383401Y-95201000D02*
X98383401Y-96069000D01*
X98343401Y-92626000D02*
X98343401Y-93521000D01*
X98143401Y-95201000D02*
X98143401Y-96212000D01*
X97542401Y-95201000D02*
X97542401Y-96411000D01*
X97302401Y-92284000D02*
X97302401Y-96438000D01*
X97422401Y-92294000D02*
X97422401Y-93521000D01*
X97382401Y-95201000D02*
X97382401Y-96432000D01*
X98583401Y-92809000D02*
X98583401Y-93521000D01*
X98583401Y-95201000D02*
X98583401Y-95913000D01*
X97862401Y-92393000D02*
X97862401Y-93521000D01*
X98543401Y-92774000D02*
X98543401Y-93521000D01*
X97742401Y-92356000D02*
X97742401Y-93521000D01*
X97943401Y-95201000D02*
X97943401Y-96301000D01*
X98743401Y-92965000D02*
X98743401Y-93521000D01*
X97782401Y-92367000D02*
X97782401Y-93521000D01*
X99023401Y-93348000D02*
X99023401Y-95374000D01*
X98623401Y-92845000D02*
X98623401Y-93521000D01*
X98383401Y-92653000D02*
X98383401Y-93521000D01*
X98463401Y-95201000D02*
X98463401Y-96011000D01*
X99302401Y-94361000D02*
G75*
G03*
X99302401Y-94361000I-2120000J0D01*
G01*
%TO.C,J3*%
X131639000Y-77537000D02*
X132969000Y-77537000D01*
X131639000Y-87817000D02*
X134299000Y-87817000D01*
X131639000Y-78867000D02*
X131639000Y-77537000D01*
X131639000Y-80137000D02*
X134299000Y-80137000D01*
X131639000Y-80137000D02*
X131639000Y-87817000D01*
X134299000Y-80137000D02*
X134299000Y-87817000D01*
%TO.C,C3*%
X91035000Y-77127000D02*
X87137000Y-77127000D01*
X91035000Y-77527000D02*
X87251000Y-77527000D01*
X93817000Y-80727000D02*
X90333000Y-80727000D01*
X97153000Y-76086000D02*
X86997000Y-76086000D01*
X91035000Y-76807000D02*
X87071000Y-76807000D01*
X94112000Y-80607000D02*
X90038000Y-80607000D01*
X97120000Y-76526000D02*
X93115000Y-76526000D01*
X91035000Y-77367000D02*
X87201000Y-77367000D01*
X91035000Y-76847000D02*
X87078000Y-76847000D01*
X93585000Y-80807000D02*
X90565000Y-80807000D01*
X96678000Y-78087000D02*
X93115000Y-78087000D01*
X96296000Y-78767000D02*
X87854000Y-78767000D01*
X97110000Y-76606000D02*
X93115000Y-76606000D01*
X95075000Y-80047000D02*
X89075000Y-80047000D01*
X97003000Y-77167000D02*
X93115000Y-77167000D01*
X91035000Y-76326000D02*
X87010000Y-76326000D01*
X97129000Y-76446000D02*
X93115000Y-76446000D01*
X91035000Y-78047000D02*
X87454000Y-78047000D01*
X96470000Y-78487000D02*
X87680000Y-78487000D01*
X91035000Y-76406000D02*
X87017000Y-76406000D01*
X94784000Y-80247000D02*
X89366000Y-80247000D01*
X92674000Y-81007000D02*
X91476000Y-81007000D01*
X96032000Y-79127000D02*
X88118000Y-79127000D01*
X96348000Y-78687000D02*
X87802000Y-78687000D01*
X91035000Y-77167000D02*
X87147000Y-77167000D01*
X94964000Y-80127000D02*
X89186000Y-80127000D01*
X91035000Y-77767000D02*
X87337000Y-77767000D01*
X96949000Y-77367000D02*
X93115000Y-77367000D01*
X96095000Y-79047000D02*
X88055000Y-79047000D01*
X96422000Y-78567000D02*
X87728000Y-78567000D01*
X96960000Y-77327000D02*
X93115000Y-77327000D01*
X96373000Y-78647000D02*
X87777000Y-78647000D01*
X91035000Y-77647000D02*
X87292000Y-77647000D01*
X91035000Y-77207000D02*
X87157000Y-77207000D01*
X97022000Y-77087000D02*
X93115000Y-77087000D01*
X91035000Y-77687000D02*
X87307000Y-77687000D01*
X91035000Y-77807000D02*
X87352000Y-77807000D01*
X94284000Y-80527000D02*
X89866000Y-80527000D01*
X94845000Y-80207000D02*
X89305000Y-80207000D01*
X96125000Y-79007000D02*
X88025000Y-79007000D01*
X96843000Y-77687000D02*
X93115000Y-77687000D01*
X91035000Y-76647000D02*
X87045000Y-76647000D01*
X95676000Y-79527000D02*
X88474000Y-79527000D01*
X95595000Y-79607000D02*
X88555000Y-79607000D01*
X91035000Y-78087000D02*
X87472000Y-78087000D01*
X97145000Y-76246000D02*
X93115000Y-76246000D01*
X97057000Y-76927000D02*
X93115000Y-76927000D01*
X96993000Y-77207000D02*
X93115000Y-77207000D01*
X94905000Y-80167000D02*
X89245000Y-80167000D01*
X96558000Y-78327000D02*
X87592000Y-78327000D01*
X91035000Y-76446000D02*
X87021000Y-76446000D01*
X91035000Y-76166000D02*
X87000000Y-76166000D01*
X95467000Y-79727000D02*
X88683000Y-79727000D01*
X96912000Y-77487000D02*
X93115000Y-77487000D01*
X97154000Y-76046000D02*
X86996000Y-76046000D01*
X97086000Y-76767000D02*
X93115000Y-76767000D01*
X97125000Y-76486000D02*
X93115000Y-76486000D01*
X93921000Y-80687000D02*
X90229000Y-80687000D01*
X96937000Y-77407000D02*
X93115000Y-77407000D01*
X91035000Y-77847000D02*
X87368000Y-77847000D01*
X96322000Y-78727000D02*
X87828000Y-78727000D01*
X91035000Y-76566000D02*
X87035000Y-76566000D01*
X91035000Y-77047000D02*
X87119000Y-77047000D01*
X97065000Y-76887000D02*
X93115000Y-76887000D01*
X97115000Y-76566000D02*
X93115000Y-76566000D01*
X91035000Y-76887000D02*
X87085000Y-76887000D01*
X97137000Y-76366000D02*
X93115000Y-76366000D01*
X97148000Y-76206000D02*
X93115000Y-76206000D01*
X96858000Y-77647000D02*
X93115000Y-77647000D01*
X91035000Y-76486000D02*
X87025000Y-76486000D01*
X91035000Y-77727000D02*
X87321000Y-77727000D01*
X95553000Y-79647000D02*
X88597000Y-79647000D01*
X94200000Y-80567000D02*
X89950000Y-80567000D01*
X91035000Y-76927000D02*
X87093000Y-76927000D01*
X96639000Y-78167000D02*
X93115000Y-78167000D01*
X91035000Y-77247000D02*
X87168000Y-77247000D01*
X95754000Y-79447000D02*
X88396000Y-79447000D01*
X97150000Y-76166000D02*
X93115000Y-76166000D01*
X91035000Y-76366000D02*
X87013000Y-76366000D01*
X96620000Y-78207000D02*
X93115000Y-78207000D01*
X95791000Y-79407000D02*
X88359000Y-79407000D01*
X91035000Y-77487000D02*
X87238000Y-77487000D01*
X93137000Y-80927000D02*
X91013000Y-80927000D01*
X96872000Y-77607000D02*
X93115000Y-77607000D01*
X96579000Y-78287000D02*
X87571000Y-78287000D01*
X95450000Y-70946354D02*
X94450000Y-70946354D01*
X95933000Y-79247000D02*
X88217000Y-79247000D01*
X95828000Y-79367000D02*
X88322000Y-79367000D01*
X97155000Y-76006000D02*
X86995000Y-76006000D01*
X94654000Y-80327000D02*
X89496000Y-80327000D01*
X91035000Y-76767000D02*
X87064000Y-76767000D01*
X91035000Y-77927000D02*
X87401000Y-77927000D01*
X91035000Y-76206000D02*
X87002000Y-76206000D01*
X94440000Y-80447000D02*
X89710000Y-80447000D01*
X95864000Y-79327000D02*
X88286000Y-79327000D01*
X96185000Y-78927000D02*
X87965000Y-78927000D01*
X96982000Y-77247000D02*
X93115000Y-77247000D01*
X96925000Y-77447000D02*
X93115000Y-77447000D01*
X96782000Y-77847000D02*
X93115000Y-77847000D01*
X96600000Y-78247000D02*
X87550000Y-78247000D01*
X97013000Y-77127000D02*
X93115000Y-77127000D01*
X95329000Y-79847000D02*
X88821000Y-79847000D01*
X95715000Y-79487000D02*
X88435000Y-79487000D01*
X97079000Y-76807000D02*
X93115000Y-76807000D01*
X91035000Y-77967000D02*
X87418000Y-77967000D01*
X95181000Y-79967000D02*
X88969000Y-79967000D01*
X97155000Y-75926000D02*
X86995000Y-75926000D01*
X96696000Y-78047000D02*
X93115000Y-78047000D01*
X91035000Y-76967000D02*
X87101000Y-76967000D01*
X95511000Y-79687000D02*
X88639000Y-79687000D01*
X96492000Y-78447000D02*
X87658000Y-78447000D01*
X91035000Y-76246000D02*
X87005000Y-76246000D01*
X96659000Y-78127000D02*
X93115000Y-78127000D01*
X96765000Y-77887000D02*
X93115000Y-77887000D01*
X97133000Y-76406000D02*
X93115000Y-76406000D01*
X93453000Y-80847000D02*
X90697000Y-80847000D01*
X94364000Y-80487000D02*
X89786000Y-80487000D01*
X97031000Y-77047000D02*
X93115000Y-77047000D01*
X95376000Y-79807000D02*
X88774000Y-79807000D01*
X91035000Y-77087000D02*
X87128000Y-77087000D01*
X95281000Y-79887000D02*
X88869000Y-79887000D01*
X91035000Y-76526000D02*
X87030000Y-76526000D01*
X96064000Y-79087000D02*
X88086000Y-79087000D01*
X97152000Y-76126000D02*
X86998000Y-76126000D01*
X91035000Y-77567000D02*
X87264000Y-77567000D01*
X96398000Y-78607000D02*
X87752000Y-78607000D01*
X97099000Y-76687000D02*
X93115000Y-76687000D01*
X91035000Y-76286000D02*
X87007000Y-76286000D01*
X97155000Y-75966000D02*
X86995000Y-75966000D01*
X96000000Y-79167000D02*
X88150000Y-79167000D01*
X96537000Y-78367000D02*
X87613000Y-78367000D01*
X91035000Y-76687000D02*
X87051000Y-76687000D01*
X94585000Y-80367000D02*
X89565000Y-80367000D01*
X96213000Y-78887000D02*
X87937000Y-78887000D01*
X95636000Y-79567000D02*
X88514000Y-79567000D01*
X96749000Y-77927000D02*
X93115000Y-77927000D01*
X91035000Y-77447000D02*
X87225000Y-77447000D01*
X97040000Y-77007000D02*
X93115000Y-77007000D01*
X95899000Y-79287000D02*
X88251000Y-79287000D01*
X94019000Y-80647000D02*
X90131000Y-80647000D01*
X97143000Y-76286000D02*
X93115000Y-76286000D01*
X91035000Y-77407000D02*
X87213000Y-77407000D01*
X96269000Y-78807000D02*
X87881000Y-78807000D01*
X91035000Y-77007000D02*
X87110000Y-77007000D01*
X91035000Y-77287000D02*
X87178000Y-77287000D01*
X93705000Y-80767000D02*
X90445000Y-80767000D01*
X97072000Y-76847000D02*
X93115000Y-76847000D01*
X94514000Y-80407000D02*
X89636000Y-80407000D01*
X96714000Y-78007000D02*
X93115000Y-78007000D01*
X95422000Y-79767000D02*
X88728000Y-79767000D01*
X91035000Y-77887000D02*
X87385000Y-77887000D01*
X94720000Y-80287000D02*
X89430000Y-80287000D01*
X91035000Y-78007000D02*
X87436000Y-78007000D01*
X96829000Y-77727000D02*
X93115000Y-77727000D01*
X91035000Y-76727000D02*
X87057000Y-76727000D01*
X97140000Y-76326000D02*
X93115000Y-76326000D01*
X95129000Y-80007000D02*
X89021000Y-80007000D01*
X95231000Y-79927000D02*
X88919000Y-79927000D01*
X91035000Y-78207000D02*
X87530000Y-78207000D01*
X91035000Y-76606000D02*
X87040000Y-76606000D01*
X91035000Y-77607000D02*
X87278000Y-77607000D01*
X96732000Y-77967000D02*
X93115000Y-77967000D01*
X92937000Y-80967000D02*
X91213000Y-80967000D01*
X96798000Y-77807000D02*
X93115000Y-77807000D01*
X96241000Y-78847000D02*
X87909000Y-78847000D01*
X93305000Y-80887000D02*
X90845000Y-80887000D01*
X97049000Y-76967000D02*
X93115000Y-76967000D01*
X94950000Y-70446354D02*
X94950000Y-71446354D01*
X96446000Y-78527000D02*
X87704000Y-78527000D01*
X96899000Y-77527000D02*
X93115000Y-77527000D01*
X95967000Y-79207000D02*
X88183000Y-79207000D01*
X96972000Y-77287000D02*
X93115000Y-77287000D01*
X97093000Y-76727000D02*
X93115000Y-76727000D01*
X96886000Y-77567000D02*
X93115000Y-77567000D01*
X91035000Y-78167000D02*
X87511000Y-78167000D01*
X96813000Y-77767000D02*
X93115000Y-77767000D01*
X96515000Y-78407000D02*
X87635000Y-78407000D01*
X96155000Y-78967000D02*
X87995000Y-78967000D01*
X91035000Y-78127000D02*
X87491000Y-78127000D01*
X91035000Y-77327000D02*
X87190000Y-77327000D01*
X95020000Y-80087000D02*
X89130000Y-80087000D01*
X97105000Y-76647000D02*
X93115000Y-76647000D01*
X97195000Y-75926000D02*
G75*
G03*
X97195000Y-75926000I-5120000J0D01*
G01*
%TO.C,R4*%
X89954000Y-93909272D02*
G75*
G03*
X88182620Y-93800775I-800000J1453272D01*
G01*
D12*
%TO.C,J5*%
X86969511Y-104632999D02*
X99369511Y-104632999D01*
X99369511Y-104632999D02*
X99369511Y-115632999D01*
X97669511Y-115632999D02*
X97669511Y-116432999D01*
X88669511Y-115632999D02*
X88669511Y-116432999D01*
X86969511Y-115632999D02*
X88669511Y-115632999D01*
X86969511Y-104632999D02*
X86969511Y-115632999D01*
X97669511Y-115632999D02*
X99369511Y-115632999D01*
D13*
X86539511Y-112132999D02*
G75*
G03*
X86539511Y-112132999I-170000J0D01*
G01*
D11*
%TO.C,J2*%
X86548996Y-81855000D02*
X86548996Y-84515000D01*
X96768996Y-81855000D02*
X96768996Y-84515000D01*
X99368996Y-81855000D02*
X99368996Y-83185000D01*
X98038996Y-81855000D02*
X99368996Y-81855000D01*
X96768996Y-84515000D02*
X86548996Y-84515000D01*
X96768996Y-81855000D02*
X86548996Y-81855000D01*
%TD*%
M02*
