%TF.GenerationSoftware,KiCad,Pcbnew,(6.0.5)*%
%TF.CreationDate,2022-06-24T16:50:19+02:00*%
%TF.ProjectId,ESP32Webradio_5,45535033-3257-4656-9272-6164696f5f35,rev?*%
%TF.SameCoordinates,Original*%
%TF.FileFunction,Copper,L1,Top*%
%TF.FilePolarity,Positive*%
%FSLAX46Y46*%
G04 Gerber Fmt 4.6, Leading zero omitted, Abs format (unit mm)*
G04 Created by KiCad (PCBNEW (6.0.5)) date 2022-06-24 16:50:19*
%MOMM*%
%LPD*%
G01*
G04 APERTURE LIST*
%TA.AperFunction,ComponentPad*%
%ADD10C,5.600000*%
%TD*%
%TA.AperFunction,ComponentPad*%
%ADD11R,1.700000X1.700000*%
%TD*%
%TA.AperFunction,ComponentPad*%
%ADD12O,1.700000X1.700000*%
%TD*%
%TA.AperFunction,ComponentPad*%
%ADD13C,1.400000*%
%TD*%
%TA.AperFunction,ComponentPad*%
%ADD14O,1.400000X1.400000*%
%TD*%
%TA.AperFunction,ComponentPad*%
%ADD15R,1.200000X1.200000*%
%TD*%
%TA.AperFunction,ComponentPad*%
%ADD16C,1.200000*%
%TD*%
%TA.AperFunction,ComponentPad*%
%ADD17O,2.616000X1.308000*%
%TD*%
%TA.AperFunction,ComponentPad*%
%ADD18O,1.308000X2.616000*%
%TD*%
G04 APERTURE END LIST*
D10*
%TO.P,H3,1,1*%
%TO.N,GND*%
X133500000Y-115000000D03*
%TD*%
%TO.P,H4,1,1*%
%TO.N,GND*%
X133500000Y-68000000D03*
%TD*%
D11*
%TO.P,J1,1,Pin_1*%
%TO.N,+5V*%
X132969000Y-93726000D03*
D12*
%TO.P,J1,2,Pin_2*%
%TO.N,GND*%
X132969000Y-96266000D03*
%TD*%
D13*
%TO.P,R5,1*%
%TO.N,Net-(R5-Pad1)*%
X117856000Y-83439000D03*
D14*
%TO.P,R5,2*%
%TO.N,Net-(C2-Pad1)*%
X117856000Y-91059000D03*
%TD*%
D13*
%TO.P,R2,1*%
%TO.N,Net-(R2-Pad1)*%
X108578000Y-84930000D03*
D14*
%TO.P,R2,2*%
%TO.N,Net-(C1-Pad1)*%
X108578000Y-92550000D03*
%TD*%
D11*
%TO.P,U1,1,3.3V*%
%TO.N,+3V3*%
X102256006Y-68691506D03*
D12*
%TO.P,U1,2,EN_RST*%
%TO.N,unconnected-(U1-Pad2)*%
X102256006Y-71231506D03*
%TO.P,U1,3,GPI36*%
%TO.N,unconnected-(U1-Pad3)*%
X102256006Y-73771506D03*
%TO.P,U1,4,GPI39*%
%TO.N,unconnected-(U1-Pad4)*%
X102256006Y-76311506D03*
%TO.P,U1,5,GPI34*%
%TO.N,/G34*%
X102256006Y-78851506D03*
%TO.P,U1,6,GPI35*%
%TO.N,unconnected-(U1-Pad6)*%
X102256006Y-81391506D03*
%TO.P,U1,7,GPIO32*%
%TO.N,/G32*%
X102256006Y-83931506D03*
%TO.P,U1,8,GPIO33*%
%TO.N,/G33*%
X102256006Y-86471506D03*
%TO.P,U1,9,GPIO25*%
%TO.N,Net-(R5-Pad1)*%
X102256006Y-89011506D03*
%TO.P,U1,10,GPIO26*%
%TO.N,Net-(R2-Pad1)*%
X102256006Y-91551506D03*
%TO.P,U1,11,GPIO27*%
%TO.N,unconnected-(U1-Pad11)*%
X102256006Y-94091506D03*
%TO.P,U1,12,GPIO14*%
%TO.N,unconnected-(U1-Pad12)*%
X102256006Y-96631506D03*
%TO.P,U1,13,GPIO12*%
%TO.N,unconnected-(U1-Pad13)*%
X102256006Y-99171506D03*
%TO.P,U1,14,GND*%
%TO.N,GND*%
X102256006Y-101711506D03*
%TO.P,U1,15,GPIO13*%
%TO.N,unconnected-(U1-Pad15)*%
X102256006Y-104251506D03*
%TO.P,U1,16,GPIO9*%
%TO.N,unconnected-(U1-Pad16)*%
X102256006Y-106791506D03*
%TO.P,U1,17,GPIO10*%
%TO.N,unconnected-(U1-Pad17)*%
X102256006Y-109331506D03*
%TO.P,U1,18,GPIO11*%
%TO.N,unconnected-(U1-Pad18)*%
X102256006Y-111871506D03*
%TO.P,U1,19,5V*%
%TO.N,+5V*%
X102256006Y-114411506D03*
%TO.P,U1,20,GPIO6*%
%TO.N,unconnected-(U1-Pad20)*%
X127656006Y-114411506D03*
%TO.P,U1,21,GPIO7*%
%TO.N,unconnected-(U1-Pad21)*%
X127656006Y-111871506D03*
%TO.P,U1,22,GPIO8*%
%TO.N,unconnected-(U1-Pad22)*%
X127656006Y-109331506D03*
%TO.P,U1,23,GPIO15*%
%TO.N,unconnected-(U1-Pad23)*%
X127656006Y-106791506D03*
%TO.P,U1,24,GPIO2*%
%TO.N,unconnected-(U1-Pad24)*%
X127656006Y-104251506D03*
%TO.P,U1,25,GPIO0*%
%TO.N,unconnected-(U1-Pad25)*%
X127656006Y-101711506D03*
%TO.P,U1,26,GPIO4*%
%TO.N,unconnected-(U1-Pad26)*%
X127656006Y-99171506D03*
%TO.P,U1,27,GPIO16*%
%TO.N,unconnected-(U1-Pad27)*%
X127656006Y-96631506D03*
%TO.P,U1,28,GPIO17*%
%TO.N,unconnected-(U1-Pad28)*%
X127656006Y-94091506D03*
%TO.P,U1,29,GPIO5*%
%TO.N,unconnected-(U1-Pad29)*%
X127656006Y-91551506D03*
%TO.P,U1,30,GPIO18*%
%TO.N,unconnected-(U1-Pad30)*%
X127656006Y-89011506D03*
%TO.P,U1,31,GPIO19*%
%TO.N,unconnected-(U1-Pad31)*%
X127656006Y-86471506D03*
%TO.P,U1,32,GND*%
%TO.N,unconnected-(U1-Pad32)*%
X127656006Y-83931506D03*
%TO.P,U1,33,GPIO21*%
%TO.N,/G21*%
X127656006Y-81391506D03*
%TO.P,U1,34,GPIO3*%
%TO.N,unconnected-(U1-Pad34)*%
X127656006Y-78851506D03*
%TO.P,U1,35,GPIO1*%
%TO.N,unconnected-(U1-Pad35)*%
X127656006Y-76311506D03*
%TO.P,U1,36,GPIO22*%
%TO.N,/G22*%
X127656006Y-73771506D03*
%TO.P,U1,37,GPIO23*%
%TO.N,unconnected-(U1-Pad37)*%
X127656006Y-71231506D03*
D11*
%TO.P,U1,38,GND*%
%TO.N,GND*%
X127656006Y-68691506D03*
%TD*%
D13*
%TO.P,R3,1*%
%TO.N,Net-(C1-Pad1)*%
X113150000Y-92550000D03*
D14*
%TO.P,R3,2*%
%TO.N,GND*%
X113150000Y-84930000D03*
%TD*%
D13*
%TO.P,R1,1*%
%TO.N,+3V3*%
X98750000Y-73040000D03*
D14*
%TO.P,R1,2*%
%TO.N,/G34*%
X98750000Y-80660000D03*
%TD*%
D10*
%TO.P,H1,1,1*%
%TO.N,GND*%
X96500000Y-68000000D03*
%TD*%
D15*
%TO.P,C2,1*%
%TO.N,Net-(C2-Pad1)*%
X121495600Y-101600000D03*
D16*
%TO.P,C2,2*%
%TO.N,/S*%
X119495600Y-101600000D03*
%TD*%
D10*
%TO.P,H2,1,1*%
%TO.N,GND*%
X96500000Y-115000000D03*
%TD*%
D15*
%TO.P,C1,1*%
%TO.N,Net-(C1-Pad1)*%
X111522600Y-101600000D03*
D16*
%TO.P,C1,2*%
%TO.N,/R*%
X109522600Y-101600000D03*
%TD*%
D11*
%TO.P,J3,1,Pin_1*%
%TO.N,/G22*%
X132969000Y-78867000D03*
D12*
%TO.P,J3,2,Pin_2*%
%TO.N,/G21*%
X132969000Y-81407000D03*
%TO.P,J3,3,Pin_3*%
%TO.N,+5V*%
X132969000Y-83947000D03*
%TO.P,J3,4,Pin_4*%
%TO.N,GND*%
X132969000Y-86487000D03*
%TD*%
D15*
%TO.P,C3,1*%
%TO.N,+5V*%
X99060000Y-108950000D03*
D16*
%TO.P,C3,2*%
%TO.N,GND*%
X97060000Y-108950000D03*
%TD*%
D13*
%TO.P,R4,1*%
%TO.N,Net-(C2-Pad1)*%
X122174000Y-91059000D03*
D14*
%TO.P,R4,2*%
%TO.N,GND*%
X122174000Y-83439000D03*
%TD*%
D17*
%TO.P,J5,1*%
%TO.N,GND*%
X114505500Y-111760000D03*
D18*
%TO.P,J5,2*%
%TO.N,/S*%
X117038395Y-106684611D03*
X119505500Y-106760000D03*
%TO.P,J5,3*%
%TO.N,/R*%
X111965500Y-106680000D03*
X109505500Y-106760000D03*
%TD*%
D11*
%TO.P,J2,1,Pin_1*%
%TO.N,/G34*%
X98000000Y-83925000D03*
D12*
%TO.P,J2,2,Pin_2*%
%TO.N,/G32*%
X98000000Y-86465000D03*
%TO.P,J2,3,Pin_3*%
%TO.N,/G33*%
X98000000Y-89005000D03*
%TO.P,J2,4,Pin_4*%
%TO.N,+3V3*%
X98000000Y-91545000D03*
%TO.P,J2,5,Pin_5*%
%TO.N,GND*%
X98000000Y-94085000D03*
%TD*%
M02*
