%FSLAX45Y45*%
G04 Gerber Fmt 4.5, Leading zero omitted, Abs format (unit mm)*
G04 Created by KiCad (PCBNEW (6.0.5)) date 2022-06-24 16:52:56*
%MOMM*%
%LPD*%
G01*
G04 APERTURE LIST*
%TA.AperFunction,Profile*%
%ADD10C,0.100000*%
%TD*%
%ADD11C,0.200000*%
%ADD12C,0.120000*%
G04 APERTURE END LIST*
D10*
X9300000Y-6450000D02*
X13700000Y-6450000D01*
X13700000Y-6450000D02*
X13700000Y-11850000D01*
X13700000Y-11850000D02*
X9300000Y-11850000D01*
X9300000Y-11850000D02*
X9300000Y-6450000D01*
D11*
D12*
X10890550Y-11116000D02*
X11010550Y-11236000D01*
X11010550Y-11116000D02*
X10890550Y-11236000D01*
X10890550Y-11366000D02*
X11010550Y-11486000D01*
X11010550Y-11366000D02*
X10890550Y-11486000D01*
X11390550Y-10616000D02*
X11510550Y-10736000D01*
X11510550Y-10616000D02*
X11390550Y-10736000D01*
X11890550Y-11116000D02*
X12010550Y-11236000D01*
X12010550Y-11116000D02*
X11890550Y-11236000D01*
X11890550Y-11366000D02*
X12010550Y-11486000D01*
X12010550Y-11366000D02*
X11890550Y-11486000D01*
D11*
X9552619Y-12165476D02*
X9552619Y-11965476D01*
X9600238Y-11965476D01*
X9628810Y-11975000D01*
X9647857Y-11994048D01*
X9657381Y-12013095D01*
X9666905Y-12051190D01*
X9666905Y-12079762D01*
X9657381Y-12117857D01*
X9647857Y-12136905D01*
X9628810Y-12155952D01*
X9600238Y-12165476D01*
X9552619Y-12165476D01*
X9752619Y-12165476D02*
X9752619Y-12032143D01*
X9752619Y-12070238D02*
X9762143Y-12051190D01*
X9771667Y-12041667D01*
X9790714Y-12032143D01*
X9809762Y-12032143D01*
X9876429Y-12165476D02*
X9876429Y-12032143D01*
X9876429Y-11965476D02*
X9866905Y-11975000D01*
X9876429Y-11984524D01*
X9885952Y-11975000D01*
X9876429Y-11965476D01*
X9876429Y-11984524D01*
X10000238Y-12165476D02*
X9981190Y-12155952D01*
X9971667Y-12136905D01*
X9971667Y-11965476D01*
X10105000Y-12165476D02*
X10085952Y-12155952D01*
X10076429Y-12136905D01*
X10076429Y-11965476D01*
X10333571Y-12165476D02*
X10333571Y-11965476D01*
X10400238Y-12108333D01*
X10466905Y-11965476D01*
X10466905Y-12165476D01*
X10647857Y-12165476D02*
X10647857Y-12060714D01*
X10638333Y-12041667D01*
X10619286Y-12032143D01*
X10581190Y-12032143D01*
X10562143Y-12041667D01*
X10647857Y-12155952D02*
X10628810Y-12165476D01*
X10581190Y-12165476D01*
X10562143Y-12155952D01*
X10552619Y-12136905D01*
X10552619Y-12117857D01*
X10562143Y-12098809D01*
X10581190Y-12089286D01*
X10628810Y-12089286D01*
X10647857Y-12079762D01*
X10743095Y-12032143D02*
X10743095Y-12232143D01*
X10743095Y-12041667D02*
X10762143Y-12032143D01*
X10800238Y-12032143D01*
X10819286Y-12041667D01*
X10828810Y-12051190D01*
X10838333Y-12070238D01*
X10838333Y-12127381D01*
X10828810Y-12146428D01*
X10819286Y-12155952D01*
X10800238Y-12165476D01*
X10762143Y-12165476D01*
X10743095Y-12155952D01*
X10924048Y-12146428D02*
X10933571Y-12155952D01*
X10924048Y-12165476D01*
X10914524Y-12155952D01*
X10924048Y-12146428D01*
X10924048Y-12165476D01*
X10924048Y-12041667D02*
X10933571Y-12051190D01*
X10924048Y-12060714D01*
X10914524Y-12051190D01*
X10924048Y-12041667D01*
X10924048Y-12060714D01*
D12*
X9175000Y-12435000D02*
X9295000Y-12555000D01*
X9295000Y-12435000D02*
X9175000Y-12555000D01*
D11*
X9657381Y-12585476D02*
X9543095Y-12585476D01*
X9600238Y-12585476D02*
X9600238Y-12385476D01*
X9581190Y-12414048D01*
X9562143Y-12433095D01*
X9543095Y-12442619D01*
X9743095Y-12566428D02*
X9752619Y-12575952D01*
X9743095Y-12585476D01*
X9733571Y-12575952D01*
X9743095Y-12566428D01*
X9743095Y-12585476D01*
X9828810Y-12404524D02*
X9838333Y-12395000D01*
X9857381Y-12385476D01*
X9905000Y-12385476D01*
X9924048Y-12395000D01*
X9933571Y-12404524D01*
X9943095Y-12423571D01*
X9943095Y-12442619D01*
X9933571Y-12471190D01*
X9819286Y-12585476D01*
X9943095Y-12585476D01*
X10066905Y-12385476D02*
X10085952Y-12385476D01*
X10105000Y-12395000D01*
X10114524Y-12404524D01*
X10124048Y-12423571D01*
X10133571Y-12461667D01*
X10133571Y-12509286D01*
X10124048Y-12547381D01*
X10114524Y-12566428D01*
X10105000Y-12575952D01*
X10085952Y-12585476D01*
X10066905Y-12585476D01*
X10047857Y-12575952D01*
X10038333Y-12566428D01*
X10028810Y-12547381D01*
X10019286Y-12509286D01*
X10019286Y-12461667D01*
X10028810Y-12423571D01*
X10038333Y-12404524D01*
X10047857Y-12395000D01*
X10066905Y-12385476D01*
X10257381Y-12385476D02*
X10276429Y-12385476D01*
X10295476Y-12395000D01*
X10305000Y-12404524D01*
X10314524Y-12423571D01*
X10324048Y-12461667D01*
X10324048Y-12509286D01*
X10314524Y-12547381D01*
X10305000Y-12566428D01*
X10295476Y-12575952D01*
X10276429Y-12585476D01*
X10257381Y-12585476D01*
X10238333Y-12575952D01*
X10228810Y-12566428D01*
X10219286Y-12547381D01*
X10209762Y-12509286D01*
X10209762Y-12461667D01*
X10219286Y-12423571D01*
X10228810Y-12404524D01*
X10238333Y-12395000D01*
X10257381Y-12385476D01*
X10409762Y-12585476D02*
X10409762Y-12452143D01*
X10409762Y-12471190D02*
X10419286Y-12461667D01*
X10438333Y-12452143D01*
X10466905Y-12452143D01*
X10485952Y-12461667D01*
X10495476Y-12480714D01*
X10495476Y-12585476D01*
X10495476Y-12480714D02*
X10505000Y-12461667D01*
X10524048Y-12452143D01*
X10552619Y-12452143D01*
X10571667Y-12461667D01*
X10581190Y-12480714D01*
X10581190Y-12585476D01*
X10676429Y-12585476D02*
X10676429Y-12452143D01*
X10676429Y-12471190D02*
X10685952Y-12461667D01*
X10705000Y-12452143D01*
X10733571Y-12452143D01*
X10752619Y-12461667D01*
X10762143Y-12480714D01*
X10762143Y-12585476D01*
X10762143Y-12480714D02*
X10771667Y-12461667D01*
X10790714Y-12452143D01*
X10819286Y-12452143D01*
X10838333Y-12461667D01*
X10847857Y-12480714D01*
X10847857Y-12585476D01*
X11238333Y-12375952D02*
X11066905Y-12633095D01*
X11495476Y-12385476D02*
X11514524Y-12385476D01*
X11533571Y-12395000D01*
X11543095Y-12404524D01*
X11552619Y-12423571D01*
X11562143Y-12461667D01*
X11562143Y-12509286D01*
X11552619Y-12547381D01*
X11543095Y-12566428D01*
X11533571Y-12575952D01*
X11514524Y-12585476D01*
X11495476Y-12585476D01*
X11476428Y-12575952D01*
X11466905Y-12566428D01*
X11457381Y-12547381D01*
X11447857Y-12509286D01*
X11447857Y-12461667D01*
X11457381Y-12423571D01*
X11466905Y-12404524D01*
X11476428Y-12395000D01*
X11495476Y-12385476D01*
X11647857Y-12566428D02*
X11657381Y-12575952D01*
X11647857Y-12585476D01*
X11638333Y-12575952D01*
X11647857Y-12566428D01*
X11647857Y-12585476D01*
X11781190Y-12385476D02*
X11800238Y-12385476D01*
X11819286Y-12395000D01*
X11828809Y-12404524D01*
X11838333Y-12423571D01*
X11847857Y-12461667D01*
X11847857Y-12509286D01*
X11838333Y-12547381D01*
X11828809Y-12566428D01*
X11819286Y-12575952D01*
X11800238Y-12585476D01*
X11781190Y-12585476D01*
X11762143Y-12575952D01*
X11752619Y-12566428D01*
X11743095Y-12547381D01*
X11733571Y-12509286D01*
X11733571Y-12461667D01*
X11743095Y-12423571D01*
X11752619Y-12404524D01*
X11762143Y-12395000D01*
X11781190Y-12385476D01*
X12019286Y-12452143D02*
X12019286Y-12585476D01*
X11971667Y-12375952D02*
X11924048Y-12518809D01*
X12047857Y-12518809D01*
X12105000Y-12385476D02*
X12238333Y-12385476D01*
X12152619Y-12585476D01*
X12305000Y-12404524D02*
X12314524Y-12395000D01*
X12333571Y-12385476D01*
X12381190Y-12385476D01*
X12400238Y-12395000D01*
X12409762Y-12404524D01*
X12419286Y-12423571D01*
X12419286Y-12442619D01*
X12409762Y-12471190D01*
X12295476Y-12585476D01*
X12419286Y-12585476D01*
X12495476Y-12385476D02*
X12495476Y-12423571D01*
X12571667Y-12385476D02*
X12571667Y-12423571D01*
X12866905Y-12661667D02*
X12857381Y-12652143D01*
X12838333Y-12623571D01*
X12828809Y-12604524D01*
X12819286Y-12575952D01*
X12809762Y-12528333D01*
X12809762Y-12490238D01*
X12819286Y-12442619D01*
X12828809Y-12414048D01*
X12838333Y-12395000D01*
X12857381Y-12366428D01*
X12866905Y-12356905D01*
X13038333Y-12385476D02*
X12943095Y-12385476D01*
X12933571Y-12480714D01*
X12943095Y-12471190D01*
X12962143Y-12461667D01*
X13009762Y-12461667D01*
X13028809Y-12471190D01*
X13038333Y-12480714D01*
X13047857Y-12499762D01*
X13047857Y-12547381D01*
X13038333Y-12566428D01*
X13028809Y-12575952D01*
X13009762Y-12585476D01*
X12962143Y-12585476D01*
X12943095Y-12575952D01*
X12933571Y-12566428D01*
X13285952Y-12585476D02*
X13285952Y-12385476D01*
X13371667Y-12585476D02*
X13371667Y-12480714D01*
X13362143Y-12461667D01*
X13343095Y-12452143D01*
X13314524Y-12452143D01*
X13295476Y-12461667D01*
X13285952Y-12471190D01*
X13495476Y-12585476D02*
X13476428Y-12575952D01*
X13466905Y-12566428D01*
X13457381Y-12547381D01*
X13457381Y-12490238D01*
X13466905Y-12471190D01*
X13476428Y-12461667D01*
X13495476Y-12452143D01*
X13524048Y-12452143D01*
X13543095Y-12461667D01*
X13552619Y-12471190D01*
X13562143Y-12490238D01*
X13562143Y-12547381D01*
X13552619Y-12566428D01*
X13543095Y-12575952D01*
X13524048Y-12585476D01*
X13495476Y-12585476D01*
X13676428Y-12585476D02*
X13657381Y-12575952D01*
X13647857Y-12556905D01*
X13647857Y-12385476D01*
X13828809Y-12575952D02*
X13809762Y-12585476D01*
X13771667Y-12585476D01*
X13752619Y-12575952D01*
X13743095Y-12556905D01*
X13743095Y-12480714D01*
X13752619Y-12461667D01*
X13771667Y-12452143D01*
X13809762Y-12452143D01*
X13828809Y-12461667D01*
X13838333Y-12480714D01*
X13838333Y-12499762D01*
X13743095Y-12518809D01*
X13914524Y-12575952D02*
X13933571Y-12585476D01*
X13971667Y-12585476D01*
X13990714Y-12575952D01*
X14000238Y-12556905D01*
X14000238Y-12547381D01*
X13990714Y-12528333D01*
X13971667Y-12518809D01*
X13943095Y-12518809D01*
X13924048Y-12509286D01*
X13914524Y-12490238D01*
X13914524Y-12480714D01*
X13924048Y-12461667D01*
X13943095Y-12452143D01*
X13971667Y-12452143D01*
X13990714Y-12461667D01*
X14066905Y-12661667D02*
X14076428Y-12652143D01*
X14095476Y-12623571D01*
X14105000Y-12604524D01*
X14114524Y-12575952D01*
X14124048Y-12528333D01*
X14124048Y-12490238D01*
X14114524Y-12442619D01*
X14105000Y-12414048D01*
X14095476Y-12395000D01*
X14076428Y-12366428D01*
X14066905Y-12356905D01*
X14428809Y-12661667D02*
X14419286Y-12652143D01*
X14400238Y-12623571D01*
X14390714Y-12604524D01*
X14381190Y-12575952D01*
X14371667Y-12528333D01*
X14371667Y-12490238D01*
X14381190Y-12442619D01*
X14390714Y-12414048D01*
X14400238Y-12395000D01*
X14419286Y-12366428D01*
X14428809Y-12356905D01*
X14505000Y-12452143D02*
X14505000Y-12585476D01*
X14505000Y-12471190D02*
X14514524Y-12461667D01*
X14533571Y-12452143D01*
X14562143Y-12452143D01*
X14581190Y-12461667D01*
X14590714Y-12480714D01*
X14590714Y-12585476D01*
X14714524Y-12585476D02*
X14695476Y-12575952D01*
X14685952Y-12566428D01*
X14676428Y-12547381D01*
X14676428Y-12490238D01*
X14685952Y-12471190D01*
X14695476Y-12461667D01*
X14714524Y-12452143D01*
X14743095Y-12452143D01*
X14762143Y-12461667D01*
X14771667Y-12471190D01*
X14781190Y-12490238D01*
X14781190Y-12547381D01*
X14771667Y-12566428D01*
X14762143Y-12575952D01*
X14743095Y-12585476D01*
X14714524Y-12585476D01*
X14838333Y-12452143D02*
X14914524Y-12452143D01*
X14866905Y-12385476D02*
X14866905Y-12556905D01*
X14876428Y-12575952D01*
X14895476Y-12585476D01*
X14914524Y-12585476D01*
X15133571Y-12452143D02*
X15133571Y-12652143D01*
X15133571Y-12461667D02*
X15152619Y-12452143D01*
X15190714Y-12452143D01*
X15209762Y-12461667D01*
X15219286Y-12471190D01*
X15228809Y-12490238D01*
X15228809Y-12547381D01*
X15219286Y-12566428D01*
X15209762Y-12575952D01*
X15190714Y-12585476D01*
X15152619Y-12585476D01*
X15133571Y-12575952D01*
X15343095Y-12585476D02*
X15324048Y-12575952D01*
X15314524Y-12556905D01*
X15314524Y-12385476D01*
X15505000Y-12585476D02*
X15505000Y-12480714D01*
X15495476Y-12461667D01*
X15476428Y-12452143D01*
X15438333Y-12452143D01*
X15419286Y-12461667D01*
X15505000Y-12575952D02*
X15485952Y-12585476D01*
X15438333Y-12585476D01*
X15419286Y-12575952D01*
X15409762Y-12556905D01*
X15409762Y-12537857D01*
X15419286Y-12518809D01*
X15438333Y-12509286D01*
X15485952Y-12509286D01*
X15505000Y-12499762D01*
X15571667Y-12452143D02*
X15647857Y-12452143D01*
X15600238Y-12385476D02*
X15600238Y-12556905D01*
X15609762Y-12575952D01*
X15628809Y-12585476D01*
X15647857Y-12585476D01*
X15790714Y-12575952D02*
X15771667Y-12585476D01*
X15733571Y-12585476D01*
X15714524Y-12575952D01*
X15705000Y-12556905D01*
X15705000Y-12480714D01*
X15714524Y-12461667D01*
X15733571Y-12452143D01*
X15771667Y-12452143D01*
X15790714Y-12461667D01*
X15800238Y-12480714D01*
X15800238Y-12499762D01*
X15705000Y-12518809D01*
X15971667Y-12585476D02*
X15971667Y-12385476D01*
X15971667Y-12575952D02*
X15952619Y-12585476D01*
X15914524Y-12585476D01*
X15895476Y-12575952D01*
X15885952Y-12566428D01*
X15876428Y-12547381D01*
X15876428Y-12490238D01*
X15885952Y-12471190D01*
X15895476Y-12461667D01*
X15914524Y-12452143D01*
X15952619Y-12452143D01*
X15971667Y-12461667D01*
X16047857Y-12661667D02*
X16057381Y-12652143D01*
X16076428Y-12623571D01*
X16085952Y-12604524D01*
X16095476Y-12575952D01*
X16105000Y-12528333D01*
X16105000Y-12490238D01*
X16095476Y-12442619D01*
X16085952Y-12414048D01*
X16076428Y-12395000D01*
X16057381Y-12366428D01*
X16047857Y-12356905D01*
M02*
